# AST/ASF file generated using VICON BodyLanguage
# -----------------------------------------------
:version 1.10
:name VICON
:units
  mass 1.0
  length 0.45
  angle deg
:documentation
   .ast/.asf automatically generated from VICON data using
   VICON BodyBuilder and BodyLanguage model FoxedUp or BRILLIANT.MOD
:root
   order TX TY TZ RX RY RZ
   axis XYZ
   position 0 0 0  
   orientation 0 0 0 
:bonedata
  begin
     id 1 
     name lhipjoint
     direction 0.671379 -0.66392 0.329334 
     length 2.38647 
     axis 0 0 0  XYZ
  end
  begin
     id 2 
     name lfemur
     direction 0.34202 -0.939693 0  
     length 6.48179  
     axis 0 0 20  XYZ
    dof rx ry rz
    limits (-160.0 20.0)
           (-70.0 70.0)
           (-60.0 70.0)
  end
  begin
     id 3 
     name ltibia
     direction 0.34202 -0.939693 0   
     length 6.86524   
     axis 0 0 20   XYZ
    dof rx
    limits (-10.0 170.0)
  end
  begin
     id 4 
     name lfoot
     direction 0.204886 -0.562919 0.800715   
     length 1.73031   
     axis -90 7.62852e-016 20   XYZ
    dof rx rz
    limits (-45.0 90.0)
           (-70.0 20.0)
  end
  begin
     id 5 
     name ltoes
     direction 1.53548e-011 -4.21841e-011 1   
     length 0.828161   
     axis -90 7.62852e-016 20   XYZ
    dof rx
    limits (-90.0 20.0)
  end
  begin
     id 6 
     name rhipjoint
     direction -0.662732 -0.670855 0.332775   
     length 2.3618  
     axis 0 0 0  XYZ 
  end
  begin
     id 7 
     name rfemur
     direction -0.34202 -0.939693 0   
     length 6.3025   
     axis 0 0 -20   XYZ
    dof rx ry rz
    limits (-160.0 20.0)
           (-70.0 70.0)
           (-70.0 60.0)
  end
  begin
     id 8 
     name rtibia
     direction -0.34202 -0.939693 0   
     length 6.8732   
     axis 0 0 -20   XYZ
    dof rx
    limits (-10.0 170.0)
 end
 begin
     id 9 
     name rfoot
     direction -0.173856 -0.477665 0.861168   
     length 1.54784  
     axis -90 -7.62852e-016 -20   XYZ
    dof rx rz
    limits (-45.0 90.0)
           (-20.0 70.0)
  end
  begin
     id 10 
     name rtoes
     direction -1.53562e-011 -4.21802e-011 1   
     length 0.759618   
     axis -90 -7.62852e-016 -20   XYZ
    dof rx
    limits (-90.0 20.0)
  end
  begin
     id 11 
     name lowerback
     direction -0.0278357 0.999497 -0.0151789   
     length 1.97203   
     axis 0 0 0   XYZ
    dof rx ry rz
    limits (-20.0 45.0)
           (-30.0 30.0)
           (-30.0 30.0)
  end
  begin
     id 12 
     name upperback
     direction -0.00360622 0.997542 0.0699804   
     length 1.94709   
     axis 0 0 0   XYZ
    dof rx ry rz
    limits (-20.0 45.0)
           (-30.0 30.0)
           (-30.0 30.0)
  end
  begin
     id 13 
     name thorax
     direction 0.00907706 0.997048 0.0762461   
     length 1.95722   
     axis 0 0 0   XYZ
    dof rx ry rz
    limits (-20.0 45.0)
           (-30.0 30.0)
           (-30.0 30.0)
  end
  begin
     id 14 
     name lowerneck
     direction -0.0481835 0.99872 -0.0153927   
     length 1.63078   
     axis 0 0 0   XYZ
    dof rx ry rz
    limits (-20.0 45.0)
           (-30.0 30.0)
           (-30.0 30.0)
  end
  begin
     id 15 
     name upperneck
     direction 0.0859716 0.979226 -0.183644   
     length 1.62591   
     axis 0 0 0   XYZ
    dof rx ry rz
    limits (-20.0 45.0)
           (-30.0 30.0)
           (-30.0 30.0)
  end
  begin
     id 16
     name head
     direction 0.0324821 0.997629 -0.0606773  
     length 1.64811  
     axis 0 0 0   XYZ
    dof rx ry rz
    limits (-20.0 45.0)
           (-30.0 30.0)
           (-30.0 30.0)
  end
  begin
     id 17 
     name lclavicle
     direction 0.939609 0.311019 0.142835  
     length 3.70647  
     axis 0 0 0   XYZ
    dof ry rz
    limits (-20.0 10.0)
           (0.0 20.0)
  end
  begin
     id 18 
     name lhumerus
     direction 1 -4.48963e-011 -1.59838e-027   
     length 4.59207   
     axis 180 -30 -90   XYZ
    dof rx ry rz
    limits (-60.0 90.0)
           (-90.0 90.0)
           (-90.0 90.0)
  end
  begin
     id 19
     name lradius
     direction 1 -4.48957e-011 -1.3483e-026   
     length 2.98109   
     axis 180 -30 -90   XYZ
    dof rx
    limits (-10.0 170.0)
  end
  begin
     id 20
     name lwrist
     direction 1 -4.48954e-011 -3.11579e-026   
     length 1.49055   
     axis 2.00652e-014 90 90   XYZ
    dof ry
    limits (-180.0 0.0)
 end
  begin
     id 21 
     name lhand
     direction 1 -4.4911e-011 -6.23158e-026   
     length 0.480203   
     axis 3.97628e-014 90 90   XYZ
    dof rx rz
    limits (-90.0 90.0)
           (-45.0 45.0)
  end
  begin
     id 22 
     name lfingers
     direction 1 -4.48893e-011 -1.24632e-025   
     length 0.387152   
     axis 7.95256e-014 90 90   XYZ
    dof rx
    limits (0.0 90.0)
  end
  begin
     id 23
     name lthumb
     direction 0.707107 -6.35013e-011 0.707107   
     length 0.555875   
     axis -90 45 2.85299e-015   XYZ
    dof rx rz
    limits (-45.0 45.0)
           (-45.0 45.0)
  end
  begin
     id 24 
     name rclavicle
     direction -0.950396 0.30392 0.0661859   
     length 3.70894  
     axis 0 0 0   XYZ 
    dof ry rz
    limits (-10.0 20.0)
           (-20.0 0.0)
  end
  begin
     id 25 
     name rhumerus
     direction -1 -4.48957e-011 -2.96677e-027  
     length 4.76508   
     axis 180 30 90   XYZ
    dof rx ry rz
    limits (-90.0 60.0)
           (-90.0 90.0)
           (-90.0 90.0)
  end
  begin
     id 26 
     name rradius
     direction -1 -4.48974e-011 -1.44501e-026   
     length 2.78902   
     axis 180 30 90   XYZ
    dof rx
    limits (-10.0 170.0)
  end
  begin
     id 27 
     name rwrist
     direction -1 -4.48978e-011 -3.11579e-026   
     length 1.39451   
     axis 2.00652e-014 -90 -90   XYZ
    dof ry
    limits (-180.0 0.0)
  end
  begin
     id 28
     name rhand
     direction -1 -4.48956e-011 -6.23158e-026   
     length 0.721303   
     axis 3.97628e-014 -90 -90   XYZ
    dof rx rz
    limits (-90.0 90.0)
           (-45.0 45.0)
  end
  begin
     id 29
     name rfingers
     direction -1 -4.4899e-011 -1.24632e-025   
     length 0.581533   
     axis 7.95256e-014 -90 -90   XYZ
    dof rx
    limits (0.0 90.0)
  end
  begin
     id 30
     name rthumb
     direction -0.707107 -6.34911e-011 0.707107   
     length 0.834968   
     axis -90 -45 -2.85299e-015   XYZ
    dof rx rz
    limits (-45.0 45.0)
           (-45.0 45.0)
  end
:hierarchy
  begin
    root lhipjoint rhipjoint lowerback
    lhipjoint lfemur
    lfemur ltibia
    ltibia lfoot
    lfoot ltoes
    rhipjoint rfemur
    rfemur rtibia
    rtibia rfoot
    rfoot rtoes
    lowerback upperback
    upperback thorax
    thorax lowerneck lclavicle rclavicle
    lowerneck upperneck
    upperneck head
    lclavicle lhumerus
    lhumerus lradius
    lradius lwrist
    lwrist lhand lthumb
    lhand lfingers
    rclavicle rhumerus
    rhumerus rradius
    rradius rwrist
    rwrist rhand rthumb
    rhand rfingers
  end

#!OML:ASF I:\salsa\salsa 7_09\Patient 1\Session 1\dancerfemale.ASF
:FULLY-SPECIFIED
:DEGREES
1036
root 4.12434 16.4258 -2.17302 -170.254 399.827 182.72
lowerback -4.41396 -4.63624 -3.90556
upperback -13.7193 -5.11831 -2.86273
thorax -12.2527 -1.64354 -0.788469
lowerneck 2.90932 -5.08847 -10.1303
upperneck -0.852228 -6.59048 20.29
head 0.320015 -3.22691 7.89358
rclavicle -1.1291e-013 -7.95139e-014
rhumerus 63.4681 -41.3436 -82.8786
rradius 91.9019
rwrist -43.0946
rhand -13.6414 68.4836
rfingers 7.12502
rthumb 12.4749 38.876
lclavicle -1.1291e-013 -7.95139e-014
lhumerus -52.5736 -23.8826 114.407
lradius 108.941
lwrist -7.87939
lhand 0.206404 29.2058
lfingers 7.12502
lthumb 25.7881 57.478
rfemur -26.3267 -2.61486 27.419
rtibia 40.0236
rfoot -3.14157 3.1774
rtoes -32.8713
lfemur -21.0261 19.0862 -23.5924
ltibia 59.0766
lfoot 4.50758 13.8915
ltoes 33.9984
1037
root 4.19918 16.3537 -2.23649 -168.672 407.588 185.177
lowerback -3.95947 -4.40563 -2.91663
upperback -13.7258 -4.89686 -1.54999
thorax -12.4834 -1.63091 0.128973
lowerneck 3.66449 -8.24616 -10.7605
upperneck -0.943845 -11.0843 19.7281
head 0.881641 -5.52362 7.67475
rclavicle -5.12864e-014 -1.59028e-015
rhumerus 58.7657 -40.6965 -83.6261
rradius 91.1668
rwrist -42.76
rhand -14.5064 68.7197
rfingers 7.12502
rthumb 11.6408 39.063
lclavicle -5.12864e-014 -1.59028e-015
lhumerus -53.6689 -20.4003 113.31
lradius 109.62
lwrist -9.18947
lhand -0.787828 30.2925
lfingers 7.12502
lthumb 24.8356 58.6996
rfemur -26.0147 -2.30602 29.1251
rtibia 40.1106
rfoot -3.17885 9.58493
rtoes -31.7905
lfemur -22.3181 16.8596 -22.5229
ltibia 60.84
lfoot 2.85662 13.6567
ltoes 35.9175
1038
root 4.28767 16.3307 -2.34157 -166.641 415.064 187.532
lowerback -4.42318 -4.20182 -2.35722
upperback -13.3712 -4.64928 -0.394887
thorax -11.7142 -1.58394 1.03646
lowerneck 7.8857 -9.12514 -14.8258
upperneck -4.55658 -12.4143 23.8281
head -0.0773608 -6.54812 9.95603
rclavicle -2.26615e-014 1.35174e-014
rhumerus 54.1864 -39.7753 -83.9187
rradius 90.7046
rwrist -42.4776
rhand -15.9687 68.7404
rfingers 7.12502
rthumb 10.2303 39.0092
lclavicle -2.26615e-014 1.35174e-014
lhumerus -54.7373 -16.813 111.829
lradius 110.343
lwrist -10.8825
lhand -0.246264 30.5167
lfingers 7.12502
lthumb 25.3545 58.8511
rfemur -25.4832 -3.03314 30.103
rtibia 39.9311
rfoot -2.46616 15.3661
rtoes -26.5695
lfemur -23.5742 14.2748 -22.0576
ltibia 62.1744
lfoot 1.48727 14.5141
ltoes 35.08
1039
root 4.37924 16.3208 -2.45527 -164.879 422.507 189.254
lowerback -4.37266 -3.98987 -2.21142
upperback -13.3972 -4.40957 0.166762
thorax -11.7457 -1.48401 1.5616
lowerneck 14.3529 -10.8251 -16.1232
upperneck -10.0055 -14.7299 25.9214
head -1.938 -8.26611 11.4694
rclavicle -1.74931e-014 3.26007e-014
rhumerus 48.6963 -38.7888 -83.8428
rradius 89.6588
rwrist -43.3799
rhand -16.4168 69.2747
rfingers 7.12502
rthumb 9.79805 39.5227
lclavicle -1.74931e-014 3.26007e-014
lhumerus -57.0527 -13.4984 109.965
lradius 111.228
lwrist -12.19
lhand 0.76507 30.3049
lfingers 7.12502
lthumb 26.323 58.4983
rfemur -24.7166 -1.35836 29.7995
rtibia 39.5427
rfoot -1.82124 18.8151
rtoes -22.404
lfemur -24.7541 10.8488 -22.221
ltibia 63.1315
lfoot 0.302071 17.2415
ltoes 37.8082
1040
root 4.48302 16.3277 -2.57836 -161.677 429.669 192.577
lowerback -4.47917 -3.86379 -2.03391
upperback -13.1506 -4.28874 0.823317
thorax -11.3533 -1.46017 2.15904
lowerneck 16.4022 -13.8611 -15.8442
upperneck -10.3017 -19.2438 24.6269
head -1.54299 -10.5999 10.8637
rclavicle 3.12092e-014 7.95139e-015
rhumerus 43.3813 -37.182 -83.5744
rradius 89.1551
rwrist -45.4985
rhand -15.4657 69.1257
rfingers 7.12502
rthumb 10.7156 39.419
lclavicle 3.12092e-014 7.95139e-015
lhumerus -59.2971 -10.2846 107.856
lradius 112.087
lwrist -13.0417
lhand 1.03405 29.8651
lfingers 7.12502
lthumb 26.5804 58.0197
rfemur -23.658 0.165978 29.5243
rtibia 38.9395
rfoot -1.24352 21.4834
rtoes -16.5413
lfemur -25.6981 7.35521 -21.739
ltibia 63.7211
lfoot -1.91587 18.4384
ltoes 37.6181
